<?xml version="1.0" standalone="no"?>
<!DOCTYPE svg PUBLIC "-//W3C//DTD SVG 1.1//EN" "http://www.w3.org/Graphics/SVG/1.1/DTD/svg11.dtd" >
<svg xmlns="http://www.w3.org/2000/svg">
<metadata></metadata>
<defs>
<font id="fzzhengheis-m-gbregular" horiz-adv-x="2048" vert-adv-y="2048" >
<font-face units-per-em="2048" ascent="1632" descent="-416" />
<missing-glyph horiz-adv-x="672" />
<glyph horiz-adv-x="0" vert-adv-y="0" />
<glyph horiz-adv-x="682" />
<glyph unicode=" "  horiz-adv-x="672" />
<glyph unicode="&#x09;" horiz-adv-x="672" />
<glyph unicode="&#xa0;" horiz-adv-x="672" />
<glyph unicode="!" horiz-adv-x="472" d="M112 -120v240h256v-240h-256zM112 1576h256l-40 -1216h-184z" />
<glyph unicode="&#x22;" horiz-adv-x="768" d="M80 1632h232l-40 -624h-160zM464 1632h232l-40 -624h-160z" />
<glyph unicode="#" horiz-adv-x="1488" d="M64 400v152h312l96 448h-280v144h312l104 448h184l-96 -448h296l96 448h184l-96 -448h264v-144h-296l-96 -448h272v-152h-304l-120 -544h-184l120 544h-304l-120 -544h-184l120 544h-280zM560 552h304l96 448h-304z" />
<glyph unicode="$" horiz-adv-x="1400" d="M80 192v192q208 -360 552 -384v672q-544 96 -528 480q16 408 528 456v184h152v-192q424 -48 504 -480h-208q-72 288 -296 336v-632q544 -112 544 -472q8 -448 -544 -488v-216h-152v224q-368 24 -552 320zM328 1144q0 -232 304 -296v608q-288 -48 -304 -312zM784 0 q320 32 320 344q0 224 -320 296v-640z" />
<glyph unicode="%" horiz-adv-x="2120" d="M80 1144q8 448 400 456q368 -16 384 -456q-8 -432 -392 -448q-376 16 -392 448zM264 1144q8 -296 208 -312q208 8 216 320q-8 304 -216 312q-208 0 -208 -320zM464 -208l968 1808h208l-968 -1808h-208zM1240 224q8 456 392 464q376 -16 392 -456q-8 -424 -400 -432 q-368 16 -384 424zM1416 232q8 -288 216 -296q208 0 208 304q-8 304 -208 312q-216 0 -216 -320z" />
<glyph unicode="&#x26;" horiz-adv-x="1752" d="M64 296q-8 328 368 512q-136 216 -136 400q24 376 448 392q416 -24 448 -368q24 -336 -464 -496q184 -208 480 -424q104 184 152 456h216q-72 -352 -216 -568q152 -104 344 -208v-152q-96 64 -272 152q-112 56 -160 88q-240 -232 -640 -224q-544 16 -568 440zM296 320 q8 -320 360 -320q280 0 456 192q-320 208 -536 440l-32 32q-256 -128 -248 -344zM504 1208q-8 -160 112 -328q384 120 368 344q-8 224 -240 232q-216 -24 -240 -248z" />
<glyph unicode="'" horiz-adv-x="384" d="M80 1632h232l-32 -632h-168z" />
<glyph unicode="(" horiz-adv-x="744" d="M88 680q16 616 416 1016h184q-392 -424 -384 -1016q-8 -584 384 -1000h-184q-408 376 -416 1000z" />
<glyph unicode=")" horiz-adv-x="744" d="M48 -320q392 416 384 1000q8 592 -384 1016h184q400 -400 416 -1016q-8 -624 -416 -1000h-184z" />
<glyph unicode="*" horiz-adv-x="1000" d="M48 1208l56 184l328 -144l-40 360h200l-40 -360l336 136l56 -176l-360 -64l256 -272l-152 -112l-192 320l-192 -312l-152 112l248 264z" />
<glyph unicode="+" horiz-adv-x="1344" d="M72 656v152h512v504h200v-504h504v-152h-504v-528h-200v528h-512z" />
<glyph unicode="," horiz-adv-x="416" d="M40 -384q160 120 176 320h-144v256h272v-216q16 -320 -304 -472v112z" />
<glyph unicode="-" horiz-adv-x="1232" d="M72 640v152h1096v-152h-1096z" />
<glyph unicode="." horiz-adv-x="400" d="M72 -56v248h264v-248h-264z" />
<glyph unicode="/" horiz-adv-x="704" d="M24 -296l456 1968h200l-456 -1968h-200z" />
<glyph unicode="0" horiz-adv-x="1368" d="M72 720q16 864 616 888q600 -8 608 -888q-8 -856 -608 -864q-608 8 -616 864zM312 720q0 -728 376 -720q368 -8 368 720q0 744 -376 736q-368 -8 -368 -736z" />
<glyph unicode="1" horiz-adv-x="968" d="M56 944v128q384 176 520 504h224v-1696h-224v1336q-176 -176 -520 -272z" />
<glyph unicode="2" horiz-adv-x="1336" d="M64 16q184 328 560 600q416 296 392 528q0 312 -328 312q-304 -8 -392 -328h-216q136 472 600 472q536 -32 576 -456q24 -320 -456 -632q-384 -256 -496 -496h952v-136h-1192v136z" />
<glyph unicode="3" horiz-adv-x="1352" d="M88 152v184q200 -344 560 -336q400 0 392 352q8 336 -464 328h-104v152h80q424 0 424 328q0 296 -320 296q-288 8 -352 -320h-208q80 464 560 464q536 -16 560 -440q0 -280 -288 -392q336 -96 344 -416q0 -496 -616 -496q-376 0 -568 296z" />
<glyph unicode="4" horiz-adv-x="1376" d="M48 264v152l832 1160h224v-1160h216v-152h-216v-384h-224v384h-832zM272 416h608v848z" />
<glyph unicode="5" horiz-adv-x="1368" d="M88 128v184q216 -312 552 -312q400 8 408 400q-8 376 -424 384h-472v784h1088v-152h-856v-480h304q584 -16 600 -520q-16 -536 -592 -552q-424 -8 -608 264z" />
<glyph unicode="6" horiz-adv-x="1376" d="M72 680q0 912 656 928q440 -8 544 -424h-208q-88 288 -344 280q-416 -24 -424 -696q168 200 440 200q528 -32 560 -544q-24 -536 -584 -560q-648 -8 -640 816zM312 440q8 -424 392 -440q344 16 352 400q-8 400 -352 416q-368 -24 -392 -376z" />
<glyph unicode="7" horiz-adv-x="1264" d="M48 1408v152h1176v-152q-560 -752 -656 -1512h-232q72 712 648 1512h-936z" />
<glyph unicode="8" horiz-adv-x="1400" d="M80 328q24 336 360 432q-304 112 -312 384q40 424 576 456q536 -32 584 -456q-16 -280 -336 -376q352 -112 368 -448q-16 -456 -616 -464q-608 16 -624 472zM320 320q16 -312 384 -320q368 0 376 312q0 304 -384 360q-368 -48 -376 -352zM360 1160q8 -264 344 -320 q336 56 344 312q-24 280 -344 304q-328 -16 -344 -296z" />
<glyph unicode="9" horiz-adv-x="1344" d="M56 1024q32 552 584 584q656 16 640 -840q16 -944 -640 -912q-360 0 -552 248v176q208 -280 520 -280q448 -8 448 672q-168 -200 -440 -192q-528 32 -560 544zM296 1048q16 -400 360 -416q360 24 384 384q-16 424 -384 440q-344 -16 -360 -408z" />
<glyph unicode=":" horiz-adv-x="456" d="M88 -56v256h272v-256h-272zM88 824v272h272v-272h-272z" />
<glyph unicode=";" horiz-adv-x="456" d="M48 -384q184 120 176 328h-136v256h272v-224q16 -320 -312 -472v112zM88 824v272h272v-272h-272z" />
<glyph unicode="&#x3c;" horiz-adv-x="1312" d="M72 640v152l1176 648v-216l-960 -504l960 -512v-208z" />
<glyph unicode="=" horiz-adv-x="1312" d="M56 368v152h1200v-152h-1200zM56 920v144h1200v-144h-1200z" />
<glyph unicode="&#x3e;" horiz-adv-x="1304" d="M72 0v216l952 504l-952 504v216l1176 -648v-152z" />
<glyph unicode="?" horiz-adv-x="1256" d="M40 1096q88 504 608 504q512 -24 544 -432q24 -256 -312 -456q-184 -120 -176 -304v-72h-224v88q-8 232 232 384q256 176 240 344q-16 288 -312 304q-288 0 -376 -360h-224zM472 -112v240h248v-240h-248z" />
<glyph unicode="@" horiz-adv-x="1984" d="M64 576q72 952 976 1016q872 -32 912 -856q-32 -632 -504 -672q-200 8 -232 200q-112 -208 -360 -200q-328 16 -336 472q24 568 536 592h376l-56 -688q-40 -248 112 -240q280 40 296 528q-24 704 -736 728q-768 -56 -816 -880q32 -784 808 -816q424 -8 760 256v-96 q-296 -296 -776 -288q-920 40 -960 944zM696 520q0 -320 216 -320q264 24 312 472l32 320h-200q-352 -16 -360 -472z" />
<glyph unicode="A" horiz-adv-x="1696" d="M8 -120l704 1696h272l704 -1696h-248l-200 488h-784l-200 -488h-248zM512 520h672l-336 840z" />
<glyph unicode="B" horiz-adv-x="1576" d="M136 -120v1688h752q544 0 544 -396v-12v-15q0 -299 -312 -385q384 -80 392 -408v-24q0 -448 -588 -448h-20h-768zM368 16h504h19q381 0 381 308v12q0 336 -440 336h-464v-656zM368 832h456q376 0 376 304v12q0 276 -364 276h-20h-448v-592z" />
<glyph unicode="C" horiz-adv-x="1696" d="M72 712q40 840 808 888q568 -16 720 -528h-232q-96 368 -480 376q-544 -48 -576 -736q24 -680 624 -712q432 0 672 440v-216q-212 -368 -707 -368h-21q-768 48 -808 856z" />
<glyph unicode="D" horiz-adv-x="1672" d="M144 -120v1696h592q856 -8 864 -840q1 -31 1 -60q0 -797 -804 -797q-30 0 -61 1h-592zM368 16h344h28q620 0 620 678v34q0 696 -640 696h-352v-1408z" />
<glyph unicode="E" horiz-adv-x="1544" d="M152 -120v1696h1304v-152h-1072v-600h1008v-152h-1008v-656h1072v-136h-1304z" />
<glyph unicode="F" horiz-adv-x="1440" d="M152 -120v1688h1192v-144h-968v-616h928v-144h-928v-784h-224z" />
<glyph unicode="G" horiz-adv-x="1784" d="M80 720q32 840 832 872h18q585 0 758 -504h-248q-120 360 -528 360q-560 -48 -592 -728q32 -680 632 -720q384 0 520 248v392h-568v152h784v-624q-192 -312 -736 -312q-840 40 -872 864z" />
<glyph unicode="H" horiz-adv-x="1688" d="M136 -120v1696h232v-744h968v744h224v-1696h-224v808h-968v-808h-232z" />
<glyph unicode="I" horiz-adv-x="504" d="M136 -120v1696h232v-1696h-232z" />
<glyph unicode="J" horiz-adv-x="1296" d="M88 80v184q194 -264 472 -264h16q13 -1 25 -1q343 0 343 430v19v1120h232v-1128v-17q0 -567 -537 -567h-15h-23q-327 0 -513 224z" />
<glyph unicode="K" horiz-adv-x="1664" d="M120 -120v1696h232v-936l936 936h304l-728 -712l776 -984h-280l-648 832l-360 -352v-480h-232z" />
<glyph unicode="L" horiz-adv-x="1376" d="M144 -120v1696h224v-1560h936v-136h-1160z" />
<glyph unicode="M" horiz-adv-x="1984" d="M128 -120v1696h304l568 -1440l568 1440h304v-1696h-224v1376l-552 -1368h-192l-552 1368v-1376h-224z" />
<glyph unicode="N" horiz-adv-x="1680" d="M128 -120v1696h232l976 -1376v1376h224v-1696h-224l-976 1360v-1360h-232z" />
<glyph unicode="O" horiz-adv-x="1824" d="M72 712q40 848 848 888q776 -48 832 -888q-32 -824 -848 -856q-792 48 -832 856zM312 720q24 -688 592 -720q592 16 608 720q-32 688 -592 728q-576 -48 -608 -728z" />
<glyph unicode="P" horiz-adv-x="1536" d="M128 -112v1688h744q576 -16 592 -512q0 -7 1 -14q0 -514 -591 -514h-18h-504v-648h-224zM352 680h456q17 -1 33 -1q384 0 384 357q0 14 -1 28q0 360 -416 360h-456v-744z" />
<glyph unicode="Q" horiz-adv-x="1816" d="M64 712q40 848 856 888q776 -48 832 -880q-16 -680 -600 -832l440 -472h-296l-400 440q-792 56 -832 856zM304 720q24 -680 600 -720q592 24 608 720q-32 696 -592 736q-584 -48 -616 -736z" />
<glyph unicode="R" horiz-adv-x="1680" d="M144 -120v1696h816q584 -8 592 -496q0 -7 1 -14q0 -419 -481 -458l600 -728h-280l-584 728h-432v-728h-232zM376 752h520q19 -1 38 -1q379 0 379 305q0 12 -1 24q0 344 -416 344h-520v-672z" />
<glyph unicode="S" horiz-adv-x="1520" d="M56 208v200q256 -408 712 -408q440 0 448 320q0 280 -464 336q-641 92 -641 453q0 17 1 35q24 432 624 448q576 0 680 -488h-232q-96 336 -448 344q-376 -8 -384 -304q-1 -12 -1 -24q0 -220 433 -280q672 -111 672 -495v-9q-8 -472 -664 -480h-21q-472 0 -715 352z" />
<glyph unicode="T" horiz-adv-x="1536" d="M48 1424v152h1432v-152h-600v-1544h-232v1544h-600z" />
<glyph unicode="U" horiz-adv-x="1688" d="M128 592v984h224v-1032q0 -544 496 -544h28q461 0 460 510v34v1032h224v-984q1 -31 1 -61q0 -676 -662 -676q-29 0 -59 1h-30q-682 0 -682 704v32z" />
<glyph unicode="V" horiz-adv-x="1712" d="M32 1576h248l584 -1512l576 1512h248l-704 -1696h-256z" />
<glyph unicode="W" horiz-adv-x="2304" d="M40 1576h240l352 -1464l392 1464h264l392 -1456l360 1456h240l-472 -1688h-256l-392 1416l-408 -1416h-264z" />
<glyph unicode="X" horiz-adv-x="1728" d="M32 -112l672 856l-608 832h272l496 -704l488 704h280l-616 -832l672 -856h-288l-536 720l-552 -720h-280z" />
<glyph unicode="Y" horiz-adv-x="1712" d="M32 1576h272l552 -808l560 808h272l-728 -992v-696h-224v696z" />
<glyph unicode="Z" horiz-adv-x="1576" d="M56 16l1120 1408h-1080v152h1368v-152l-1128 -1408h1160v-136h-1440v136z" />
<glyph unicode="[" horiz-adv-x="704" d="M120 -296v1976h520v-152h-320v-1672h320v-152h-520z" />
<glyph unicode="\" horiz-adv-x="672" d="M24 1672h184l448 -1968h-184z" />
<glyph unicode="]" horiz-adv-x="720" d="M64 -144h320v1672h-320v152h520v-1976h-520v152z" />
<glyph unicode="^" horiz-adv-x="1120" d="M16 664l464 936h160l472 -936h-216l-328 728l-344 -728h-208z" />
<glyph unicode="_" horiz-adv-x="1480" d="M72 32h1336v-120h-1336v120z" />
<glyph unicode="`" horiz-adv-x="544" d="M8 1672h264l256 -408h-184z" />
<glyph unicode="a" horiz-adv-x="1272" d="M72 720q126 400 567 400h17q496 0 496 -432v-832h-552q-512 8 -520 368q8 416 576 416h312v16q0 312 -297 312h-15h-17q-266 0 -359 -248h-208zM264 240v-11q0 -229 344 -229h360v488h-328q-376 0 -376 -238v-10z" />
<glyph unicode="b" horiz-adv-x="1408" d="M152 -144v1832h232v-568h288q632 -8 640 -640v-15q0 -609 -640 -609h-520zM384 0h232q456 0 456 472q0 496 -456 496h-232v-968z" />
<glyph unicode="c" horiz-adv-x="1384" d="M104 472q24 616 600 640q448 -8 568 -408h-224q-80 256 -344 256q-352 -8 -360 -488q8 -472 440 -472q280 0 488 288v-192q-176 -248 -560 -248q-584 24 -608 624z" />
<glyph unicode="d" horiz-adv-x="1400" d="M96 480q8 632 632 640h288v568h232v-1832h-512q-640 0 -640 624zM336 472v-16q0 -456 456 -456h224v968h-224q-456 0 -456 -496z" />
<glyph unicode="e" horiz-adv-x="1384" d="M80 464q24 624 616 648q608 0 608 -696h-984q32 -416 464 -416q312 0 512 248v-176q-192 -216 -560 -216q-632 24 -656 608zM320 568h760q-16 384 -376 400q-328 -8 -384 -400z" />
<glyph unicode="f" horiz-adv-x="880" d="M72 944v144h208v224v16q0 360 360 360h16h256v-144h-192h-14q-202 0 -202 -232v-224h296v-144h-296v-1056h-224v1056h-208z" />
<glyph unicode="g" horiz-adv-x="1424" d="M80 488q16 600 664 616h536v-1120v-30q0 -570 -577 -570h-31q-336 0 -544 192v168q224 -208 504 -208q16 -1 32 -1q385 0 385 364q0 14 -1 29h-312q-656 0 -656 560zM320 496q0 -440 480 -440h248v904h-248q-464 -16 -480 -464z" />
<glyph unicode="h" horiz-adv-x="1376" d="M160 -112v1792h232v-568h344q512 0 512 -440v-784h-232v744v14q0 322 -343 322h-17h-264v-1080h-232z" />
<glyph unicode="i" horiz-adv-x="512" d="M144 -120v1208h232v-1208h-232zM144 1360v216h232v-216h-232z" />
<glyph unicode="j" horiz-adv-x="592" d="M-136 -432q88 -40 168 -40h12q140 0 140 173v19v1360h232v-1344v-18q0 -342 -299 -342h-13q-120 0 -240 64v128zM184 1360v208h232v-208h-232z" />
<glyph unicode="k" horiz-adv-x="1320" d="M128 -112v1792h232v-1144l608 560h296l-520 -472l568 -736h-272l-448 592l-232 -208v-384h-232z" />
<glyph unicode="l" horiz-adv-x="504" d="M136 -112v1792h232v-1792h-232z" />
<glyph unicode="m" horiz-adv-x="2064" d="M136 -120v1232h1352q448 0 448 -392v-840h-232v816q0 264 -288 264h-264v-1080h-232v856q0 224 -248 224h-304v-1080h-232z" />
<glyph unicode="n" horiz-adv-x="1312" d="M104 -120v1232h584q512 0 512 -440v-792h-232v776q0 304 -304 304h-16h-312v-1080h-232z" />
<glyph unicode="o" horiz-adv-x="1360" d="M72 464q24 632 624 656q576 -24 600 -640q-16 -608 -616 -624q-576 32 -608 608zM304 472q16 -456 384 -472q368 8 376 472q-16 472 -376 496q-376 -16 -384 -496z" />
<glyph unicode="p" horiz-adv-x="1392" d="M144 -616v1728h520q640 0 640 -640q0 -616 -640 -616h-288v-472h-232zM376 0h232q456 0 456 480t-456 480h-232v-960z" />
<glyph unicode="q" horiz-adv-x="1400" d="M88 472q0 640 640 640h512v-1728h-224v472h-288q-640 0 -640 616zM328 480q0 -480 456 -480h232v960h-232q-456 0 -456 -480z" />
<glyph unicode="r" horiz-adv-x="912" d="M120 -136v848q0 392 400 392h368v-144h-304q-224 -8 -232 -232v-864h-232z" />
<glyph unicode="s" horiz-adv-x="1216" d="M64 96v176q241 -272 528 -272h16h25q280 0 280 166q0 9 -1 18v9q0 176 -304 215q-512 79 -512 359v9q32 320 480 336q432 -8 512 -352h-208q-56 208 -288 208q-256 0 -264 -192q-1 -8 -1 -15q0 -162 337 -193q472 -64 480 -376q0 -344 -528 -344h-20q-323 0 -532 248z " />
<glyph unicode="t" horiz-adv-x="832" d="M56 944v144h208v488h224v-488h272v-144h-272v-768v-16q0 -160 152 -160q72 0 144 48v-120q-88 -72 -224 -72h-15q-281 0 -281 288v16v784h-208z" />
<glyph unicode="u" horiz-adv-x="1376" d="M136 296v792h232v-768q-1 -14 -1 -27q0 -293 328 -293h17h288v1088h232v-1224h-608h-18q-471 0 -470 418v14z" />
<glyph unicode="v" horiz-adv-x="1272" d="M32 1088h240l360 -1008l368 1008h248l-488 -1200h-256z" />
<glyph unicode="w" horiz-adv-x="1824" d="M32 1088h232l296 -944l240 944h232l232 -944l312 944h232l-424 -1200h-232l-232 912l-248 -912h-224z" />
<glyph unicode="x" horiz-adv-x="1304" d="M16 -112l496 600l-448 600h256l344 -472l328 472h264l-448 -592l480 -608h-272l-352 480l-376 -480h-272z" />
<glyph unicode="y" horiz-adv-x="1280" d="M24 1080h256l368 -936l360 936h248l-520 -1240q-188 -466 -432 -466q-16 0 -32 2q-13 -1 -25 -1q-113 0 -199 65v128q82 -41 153 -41q12 0 23 1h9q146 0 247 256l64 128z" />
<glyph unicode="z" horiz-adv-x="1208" d="M48 24l792 920h-768v144h1064v-144l-816 -920h840v-136h-1112v136z" />
<glyph unicode="{" horiz-adv-x="784" d="M72 608v136q240 -8 232 200v504q-8 256 320 248h88v-136h-48q-168 8 -160 -136v-504q0 -184 -176 -248q184 -48 176 -240v-488q-8 -136 128 -128h80v-136h-88q-336 -8 -320 248v488q8 200 -232 192z" />
<glyph unicode="|" horiz-adv-x="464" d="M128 -392v2160h200v-2160h-200z" />
<glyph unicode="}" horiz-adv-x="808" d="M96 -184h88q128 -8 120 128v488q-8 184 184 240q-184 64 -184 248v504q8 144 -160 136h-48v136h88q328 8 320 -248v-504q-8 -208 232 -200v-136q-240 8 -232 -192v-488q16 -256 -320 -248h-88v136z" />
<glyph unicode="~" horiz-adv-x="1376" d="M56 568v176q160 128 344 128q136 8 320 -80q184 -72 280 -72q160 0 312 136v-176q-136 -120 -320 -120q-160 0 -320 80q-160 72 -288 72q-184 0 -328 -144z" />
<glyph unicode="&#xa4;" d="M152 1424h264l192 -192q168 112 408 112t400 -120l200 200h272l-328 -328q128 -168 128 -416q0 -256 -152 -432l304 -304h-272l-184 176q-184 -104 -384 -104q-176 0 -344 96l-176 -176h-280l304 304q-168 176 -176 440q0 240 144 424zM552 672q40 -472 448 -504 q440 24 472 504q-32 488 -456 528q-440 -24 -464 -528z" />
<glyph unicode="&#xa7;" d="M520 704q8 224 296 336q-264 80 -272 296q24 336 488 352q256 0 408 -72v-184q-192 112 -384 112q-256 -8 -264 -208q-16 -144 368 -232q360 -104 368 -328q8 -232 -272 -328q272 -104 272 -296q-8 -336 -536 -344q-200 -8 -408 72v160q216 -80 384 -80q312 0 312 176 q0 160 -296 216q-456 72 -464 352zM744 720q0 -168 288 -216q272 64 272 240q-8 200 -304 240q-248 -72 -256 -264z" />
<glyph unicode="&#xa8;" d="M760 1272v200h176v-200h-176zM1112 1272v200h176v-200h-176z" />
<glyph unicode="&#xad;" horiz-adv-x="1232" d="M72 640v152h1096v-152h-1096z" />
<glyph unicode="&#xb0;" d="M96 1320q16 304 328 320q304 -16 320 -320q-16 -304 -320 -320q-304 24 -328 320zM208 1328q8 -208 216 -216q200 8 208 216q-8 192 -208 200q-208 -8 -216 -200z" />
<glyph unicode="&#xb1;" d="M400 -24v136h1248v-136h-1248zM408 816v152h520v512h192v-512h528v-152h-528v-520h-192v520h-520z" />
<glyph unicode="&#xb7;" d="M856 552v304h296v-304h-296z" />
<glyph unicode="&#xd7;" d="M392 152l528 568l-512 552h208l408 -440l408 440h208l-512 -552l528 -568h-200l-432 464l-432 -464h-200z" />
<glyph unicode="&#xe0;" d="M456 480q8 632 624 640h280v24h224v-1288h-496q-624 0 -632 624zM696 472q0 -472 440 -472h224v968h-224q-432 8 -440 -496zM872 1568h256l176 -312h-160z" />
<glyph unicode="&#xe1;" d="M456 480q8 632 624 640h280v24h224v-1288h-496q-624 0 -632 624zM696 472q0 -472 440 -472h224v968h-224q-432 8 -440 -496zM888 1264l272 312h160l-176 -312h-256z" />
<glyph unicode="&#xe8;" d="M424 464q16 624 600 648q600 0 600 -696h-968q32 -416 448 -416q312 0 504 248v-176q-184 -216 -544 -216q-624 24 -640 608zM656 568h744q-16 384 -368 400q-320 -8 -376 -400zM808 1568h256l176 -312h-160z" />
<glyph unicode="&#xe9;" d="M424 464q16 624 600 648q600 0 600 -696h-968q32 -416 448 -416q312 0 504 248v-176q-184 -216 -544 -216q-624 24 -640 608zM656 568h744q-16 384 -368 400q-320 -8 -376 -400zM808 1264l272 312h160l-176 -312h-256z" />
<glyph unicode="&#xea;" d="M424 464q16 624 600 648q600 0 600 -696h-968q32 -416 448 -416q312 0 504 248v-176q-184 -216 -544 -216q-624 24 -640 608zM656 568h744q-16 384 -368 400q-320 -8 -376 -400zM688 1264l240 296h192l232 -296h-168l-160 168l-168 -168h-168z" />
<glyph unicode="&#xec;" d="M808 1568h256l176 -312h-160zM912 -120v1208h224v-1208h-224z" />
<glyph unicode="&#xed;" d="M808 1264l272 312h160l-176 -312h-256zM912 -120v1208h224v-1208h-224z" />
<glyph unicode="&#xf2;" d="M424 464q24 640 616 656q560 -24 584 -640q-16 -608 -600 -624q-568 32 -600 608zM648 472q16 -456 376 -472q368 8 376 472q-16 472 -376 496q-360 -16 -376 -496zM808 1568h256l176 -312h-160z" />
<glyph unicode="&#xf3;" d="M424 464q24 640 616 656q560 -24 584 -640q-16 -608 -600 -624q-568 32 -600 608zM648 472q16 -456 376 -472q368 8 376 472q-16 472 -376 496q-360 -16 -376 -496zM808 1264l272 312h160l-176 -312h-256z" />
<glyph unicode="&#xf7;" d="M384 656v144h1280v-144h-1280zM904 56v232h240v-232h-240zM904 1144v240h240v-240h-240z" />
<glyph unicode="&#xf9;" d="M488 296v792h224v-768q-16 -328 336 -320h288v1088h224v-1224h-600q-480 -8 -472 432zM808 1568h256l176 -312h-160z" />
<glyph unicode="&#xfa;" d="M488 296v792h224v-768q-16 -328 336 -320h288v1088h224v-1224h-600q-480 -8 -472 432zM808 1264l272 312h160l-176 -312h-256z" />
<glyph unicode="&#xfc;" d="M488 296v792h224v-768q-16 -328 336 -320h288v1088h224v-1224h-600q-480 -8 -472 432zM760 1232v192h184v-192h-184zM1104 1232v192h184v-192h-184z" />
<glyph unicode="&#x2000;" horiz-adv-x="896" vert-adv-y="0" />
<glyph unicode="&#x2001;" horiz-adv-x="1792" vert-adv-y="0" />
<glyph unicode="&#x2002;" horiz-adv-x="896" vert-adv-y="0" />
<glyph unicode="&#x2003;" horiz-adv-x="1792" vert-adv-y="0" />
<glyph unicode="&#x2004;" horiz-adv-x="597" vert-adv-y="0" />
<glyph unicode="&#x2005;" horiz-adv-x="448" vert-adv-y="0" />
<glyph unicode="&#x2006;" horiz-adv-x="298" vert-adv-y="0" />
<glyph unicode="&#x2007;" horiz-adv-x="298" vert-adv-y="0" />
<glyph unicode="&#x2008;" horiz-adv-x="224" vert-adv-y="0" />
<glyph unicode="&#x2009;" horiz-adv-x="358" vert-adv-y="0" />
<glyph unicode="&#x200a;" horiz-adv-x="99" vert-adv-y="0" />
<glyph unicode="&#x2010;" horiz-adv-x="1232" d="M72 640v152h1096v-152h-1096z" />
<glyph unicode="&#x2011;" horiz-adv-x="1232" d="M72 640v152h1096v-152h-1096z" />
<glyph unicode="&#x2012;" horiz-adv-x="1232" d="M72 640v152h1096v-152h-1096z" />
<glyph unicode="&#x2013;" horiz-adv-x="1160" d="M72 640v152h1024v-152h-1024z" />
<glyph unicode="&#x2014;" d="M0 624v152h2064v-152h-2064z" />
<glyph unicode="&#x2018;" d="M1344 952v256q8 344 320 488v-104q-192 -120 -200 -352h160v-288h-280z" />
<glyph unicode="&#x2019;" d="M336 952v104q216 128 208 368h-160v272h280v-240q0 -344 -328 -504z" />
<glyph unicode="&#x201c;" d="M1120 952v256q0 344 328 488v-104q-208 -128 -200 -352h152v-288h-280zM1560 952v256q0 344 328 488v-104q-208 -128 -200 -352h152v-288h-280z" />
<glyph unicode="&#x201d;" d="M120 952v104q208 128 200 368h-160v272h280v-240q0 -352 -320 -504zM560 952v104q208 136 200 368h-160v272h280v-240q8 -352 -320 -504z" />
<glyph unicode="&#x2026;" d="M208 576v280h264v-280h-264zM888 576v280h272v-280h-272zM1576 576v280h264v-280h-264z" />
<glyph unicode="&#x202f;" horiz-adv-x="358" vert-adv-y="0" />
<glyph unicode="&#x205f;" horiz-adv-x="448" vert-adv-y="0" />
<glyph unicode="&#x20ac;" horiz-adv-x="1688" d="M48 480v136h200v104v104h-200v136h224q152 616 696 640q512 0 672 -456h-232q-120 304 -440 304q-352 -24 -464 -488h744v-136h-760v-96v-112h760v-136h-744q112 -480 560 -480q352 0 552 312v-200q-184 -264 -632 -256q-584 24 -712 624h-224z" />
<glyph unicode="&#x25fc;" horiz-adv-x="1080" vert-adv-y="2160" d="M0 0v1080h1080v-1080h-1080z" />
</font>
</defs>
</svg>
